/* XPM */
static char * editorWindow16_xpm[] = {
"16 16 166 2",
"  	c None",
". 	c #A1A5BC",
"+ 	c #8988B4",
"@ 	c #C2C8E2",
"# 	c #F0F2F9",
"$ 	c #FBFCFE",
"% 	c #E8ECFA",
"& 	c #7B7B6B",
"* 	c #B1A349",
"= 	c #B2B7DF",
"- 	c #E6EBF8",
"; 	c #E1E7F5",
"> 	c #E3E8F6",
", 	c #E9EEFA",
"' 	c #F0F4FF",
") 	c #EFF3FF",
"! 	c #DAE1F6",
"~ 	c #BFA825",
"{ 	c #D3B50D",
"] 	c #848DC8",
"^ 	c #DCE4FA",
"/ 	c #C5D0ED",
"( 	c #C2CEEC",
"_ 	c #BFCCEB",
": 	c #D5DFF8",
"< 	c #DFE8FF",
"[ 	c #C1B878",
"} 	c #B4AF82",
"| 	c #D3B71E",
"1 	c #FED602",
"2 	c #A58F14",
"3 	c #494E98",
"4 	c #9EB3EA",
"5 	c #A6B8E5",
"6 	c #96ABDE",
"7 	c #C1D0F7",
"8 	c #BFCEF4",
"9 	c #CDDBFF",
"0 	c #CCDAFF",
"a 	c #D2C786",
"b 	c #E0C21B",
"c 	c #F7D104",
"d 	c #FDD607",
"e 	c #BDA411",
"f 	c #425BB7",
"g 	c #5D7CCD",
"h 	c #7792D5",
"i 	c #8AA3E1",
"j 	c #BBCEFF",
"k 	c #BACEFF",
"l 	c #BACDFF",
"m 	c #B9CDFF",
"n 	c #AFC3F5",
"o 	c #D1C161",
"p 	c #FDDD35",
"q 	c #FED600",
"r 	c #FBD30C",
"s 	c #F4D010",
"t 	c #A59B5E",
"u 	c #4A5098",
"v 	c #2850B8",
"w 	c #2B55BD",
"x 	c #597BCD",
"y 	c #6B8AD7",
"z 	c #A9C1FF",
"A 	c #A8C1FF",
"B 	c #A4BDFB",
"C 	c #BEAF57",
"D 	c #CAB124",
"E 	c #FED70B",
"F 	c #F7CD12",
"G 	c #FDE35F",
"H 	c #9A9369",
"I 	c #4B4F8F",
"J 	c #1B48B8",
"K 	c #5F81D5",
"L 	c #81A0EE",
"M 	c #9BB7FF",
"N 	c #8BA7F0",
"O 	c #82909E",
"P 	c #FAEB9D",
"Q 	c #FED706",
"R 	c #F8CE08",
"S 	c #F7CD0D",
"T 	c #FDE35A",
"U 	c #5C5736",
"V 	c #4A4F91",
"W 	c #1E4AB9",
"X 	c #4C72D3",
"Y 	c #90AEFB",
"Z 	c #83A2F2",
"` 	c #95B3FF",
" .	c #5277D5",
"..	c #A0A386",
"+.	c #FDE461",
"@.	c #FED70A",
"#.	c #E8B613",
"$.	c #CAB123",
"%.	c #111322",
"&.	c #514F8A",
"*.	c #1E4AB8",
"=.	c #2853BF",
"-.	c #8DABF8",
";.	c #3860C3",
">.	c #446ACA",
",.	c #4D72CF",
"'.	c #5B78B7",
").	c #918D54",
"!.	c #FFD911",
"~.	c #F2C409",
"{.	c #EBBA0B",
"].	c #FED813",
"^.	c #E8CF46",
"/.	c #8B8146",
"(.	c #3356B3",
"_.	c #1F4CBA",
":.	c #7092E5",
"<.	c #7D9EF1",
"[.	c #5176D3",
"}.	c #2450BD",
"|.	c #949CA0",
"1.	c #A99A40",
"2.	c #FBD103",
"3.	c #DAA00F",
"4.	c #FED704",
"5.	c #FEDE39",
"6.	c #EEDA74",
"7.	c #34311B",
"8.	c #456CCF",
"9.	c #8CA7E9",
"0.	c #939475",
"a.	c #FEDD2C",
"b.	c #FCD301",
"c.	c #D3930E",
"d.	c #FACF01",
"e.	c #FED707",
"f.	c #E6CA34",
"g.	c #504E32",
"h.	c #8CA7EB",
"i.	c #C8B652",
"j.	c #FCD302",
"k.	c #D19009",
"l.	c #F2C301",
"m.	c #FCD401",
"n.	c #D9BF36",
"o.	c #ADA574",
"p.	c #212016",
"q.	c #6E84CC",
"r.	c #8FADFA",
"s.	c #8B909F",
"t.	c #B37209",
"u.	c #D8AB04",
"v.	c #DEBF16",
"w.	c #D3B825",
"x.	c #5B5C4D",
"y.	c #101120",
"z.	c #5662A7",
"A.	c #586799",
"B.	c #92653F",
"C.	c #874911",
"D.	c #423C51",
"E.	c #435176",
"F.	c #3E434A",
"G.	c #333745",
"H.	c #2A202E",
"I.	c #313557",
"          . . . . . .           ",
"      . + @ # $ $ % . & *       ",
"    . = - ; > , ' ) ) ! ~ {     ",
"  . ] ^ / ( _ : < < [ } | 1 2   ",
"  3 4 5 6 7 8 9 9 0 a b c d e   ",
". f g h i j k l m n o p q r s t ",
"u v w x y z z A B C D E q F G H ",
"I J J K L M M N O P Q q R S T U ",
"V J W X Y Z `  ...+.@.q #.1 $.%.",
"&.*.=.-.;.>.,.'.).!.q ~.{.].^./.",
". (._.:.<.[.}.|.1.q 2.3.4.5.6.7.",
"  &.8.` ` ` 9.0.a.b.c.d.e.f.g.  ",
"    &.` ` ` h.i.j.k.l.m.n.o.p.  ",
"      q.r.` ` s.t.u.v.w.x.y.    ",
"        z.A.B.C.D.E.F.G.        ",
"            H.I..               "};
